<?xml version="1.0" encoding="UTF-8"?>
<svg id="Layer_3" data-name="Layer 3" xmlns="http://www.w3.org/2000/svg" viewBox="0 0 48 48">
  <defs>
    <style>
      .cls-1 {
        fill: #fff;
      }
    </style>
  </defs>
  <path class="cls-1" d="M34.11,40.88c2.48,0,4.61-.88,6.37-2.64,1.76-1.76,2.64-3.88,2.64-6.36v-3.94h-18v3.94c0,2.49.88,4.61,2.63,6.36,1.76,1.76,3.87,2.64,6.36,2.64ZM25.12,24.56h7.31v-8.27c-2.02.41-3.71,1.38-5.06,2.9s-2.1,3.31-2.25,5.37ZM35.81,24.56h7.31c-.15-2.06-.9-3.85-2.25-5.37s-3.04-2.48-5.06-2.9v8.27ZM34.12,44.25c-3.45,0-6.37-1.2-8.77-3.6-2.4-2.4-3.6-5.33-3.6-8.77v-6.75c0-3.45,1.2-6.37,3.6-8.77,2.4-2.4,5.33-3.6,8.77-3.6s6.37,1.2,8.77,3.6,3.6,5.32,3.6,8.77v6.75c0,3.45-1.2,6.37-3.6,8.77-2.4,2.4-5.33,3.6-8.77,3.6ZM4.88,36.38V7.12v29.25ZM4.88,39.75c-.9,0-1.69-.34-2.36-1.01s-1.01-1.46-1.01-2.36V7.12c0-.9.34-1.69,1.01-2.36s1.46-1.01,2.36-1.01h38.25c.9,0,1.69.34,2.36,1.01s1.01,1.46,1.01,2.36H4.88v29.25h13.5v3.38H4.88Z"/>
</svg>