<?xml version="1.0" encoding="UTF-8"?>
<svg id="Layer_5" xmlns="http://www.w3.org/2000/svg" version="1.1" viewBox="0 0 48 48">
  <!-- Generator: Adobe Illustrator 29.3.1, SVG Export Plug-In . SVG Version: 2.1.0 Build 151)  -->
  <defs>
    <style>
      .st0 {
        fill: #33a39d;
      }
    </style>
  </defs>
  <path class="st0" d="M24,14.7c7.3,0,13.9,5.9,17.2,9.3-3.3,3.4-9.9,9.3-17.2,9.3s-13.9-5.9-17.2-9.3c3.3-3.4,9.9-9.3,17.2-9.3M24,10.7C11.6,10.7,1.5,24,1.5,24c0,0,10.1,13.3,22.5,13.3s22.5-13.3,22.5-13.3c0,0-10.1-13.3-22.5-13.3h0Z"/>
  <path class="st0" d="M24,18c3.5,0,6.3,2.8,6.3,6.3s-2.8,6.3-6.3,6.3-6.3-2.8-6.3-6.3,2.8-6.3,6.3-6.3M24,14c-5.7,0-10.3,4.6-10.3,10.3s4.6,10.3,10.3,10.3,10.3-4.6,10.3-10.3-4.6-10.3-10.3-10.3h0Z"/>
</svg>