<?xml version="1.0" encoding="UTF-8"?>
<svg id="Layer_1" data-name="Layer 1" xmlns="http://www.w3.org/2000/svg" viewBox="0 0 150 227.79">
  <defs>
    <style>
      .cls-1 {
        fill: none;
        stroke: #000;
        stroke-linecap: round;
        stroke-miterlimit: 10;
        stroke-width: 4px;
      }
    </style>
  </defs>
  <line class="cls-1" x1="90" y1="19.24" x2="90" y2="114.33"/>
  <line class="cls-1" x1="117.91" y1="46.99" x2="117.91" y2="120.57"/>
  <g>
    <line class="cls-1" x1="32.13" y1="76.28" x2="32.13" y2="140.09"/>
    <line class="cls-1" x1="60.03" y1="19.24" x2="60.03" y2="110.25"/>
    <path d="M75,5.84c3.82,0,7.28,1.63,9.78,4.26,2.51,2.63,4.05,6.26,4.05,10.27v9.94c0-8.03,6.19-14.53,13.83-14.53,3.82,0,7.28,1.62,9.78,4.26,2.5,2.63,4.05,6.26,4.05,10.27v28.11c0-8.03,6.19-14.53,13.83-14.53,3.82,0,7.28,1.62,9.78,4.26,2.51,2.63,4.05,6.26,4.05,10.27v92.35h-.05c.03.86.05,1.73.05,2.6,0,37.89-30.97,68.61-69.16,68.61S5.84,191.24,5.84,153.35c0-.87.02-1.73.05-2.6h-.05v-64.72c0-8.03,6.19-14.53,13.83-14.53,3.82,0,7.28,1.62,9.78,4.26,2.5,2.63,4.05,6.26,4.05,10.27V30.3c0-8.03,6.19-14.53,13.83-14.53,3.82,0,7.28,1.62,9.78,4.26,2.51,2.63,4.05,6.26,4.05,10.27v-9.94c0-8.02,6.19-14.53,13.83-14.53M75,0c-8.14,0-15.15,5.15-18.13,12.47-2.88-1.66-6.14-2.54-9.54-2.54-10.84,0-19.67,9.14-19.67,20.37v37.11c-2.48-1.14-5.19-1.74-8-1.74-10.85,0-19.67,9.13-19.67,20.36v70.56h.07c1.71,39.55,34.67,71.2,74.93,71.2s73.22-31.65,74.93-71.2h.07V58.41c0-5.39-2.01-10.47-5.66-14.3-3.72-3.91-8.69-6.06-14-6.06-2.85,0-5.55.63-8,1.76v-9.5c0-5.38-2.01-10.46-5.66-14.3-3.72-3.91-8.7-6.07-14.01-6.07-3.45,0-6.7.93-9.52,2.55-.96-2.36-2.35-4.54-4.14-6.42-3.72-3.91-8.7-6.06-14-6.06h0Z"/>
    <line class="cls-1" x1="32.13" y1="76.28" x2="32.13" y2="140.08"/>
    <line class="cls-1" x1="60.02" y1="19.24" x2="60.02" y2="110.25"/>
  </g>
  <line class="cls-1" x1="90" y1="19.24" x2="90" y2="114.33"/>
  <line class="cls-1" x1="117.91" y1="46.99" x2="117.91" y2="120.57"/>
  <path class="cls-1" d="M32.13,140.08c26.72,0,48.38,21.17,48.38,47.29"/>
</svg>