<?xml version="1.0" encoding="UTF-8"?>
<svg id="Layer_4" xmlns="http://www.w3.org/2000/svg" version="1.1" viewBox="0 0 45 45">
  <!-- Generator: Adobe Illustrator 29.3.1, SVG Export Plug-In . SVG Version: 2.1.0 Build 151)  -->
  <defs>
    <style>
      .st0 {
        fill: #33a39d;
      }
    </style>
  </defs>
  <path class="st0" d="M4.2,40.8h3.1l27.5-27.5-1.5-1.6-1.5-1.6L4.2,37.7v3.1h0ZM0,45v-9L34.7,1.2c.4-.4.9-.7,1.4-.9s1-.3,1.5-.3,1,0,1.6.3,1,.5,1.4.9l3.1,3.1c.4.4.7.8,1,1.4s.3,1.1.3,1.6-.1,1-.3,1.6-.5,1-1,1.4L9,45H0ZM40.5,7.2l-2.9-2.9,2.9,2.9ZM34.8,13.2l-1.5-1.6-1.5-1.6,3.1,3.1h0Z"/>
</svg>