<?xml version="1.0" encoding="UTF-8"?>
<svg id="Layer_4" data-name="Layer 4" xmlns="http://www.w3.org/2000/svg" viewBox="0 0 45 45">
  <defs>
    <style>
      .cls-1 {
        fill: #37aa9c;
      }
    </style>
  </defs>
  <path class="cls-1" d="M4.22,40.75h3.09l27.49-27.49-1.55-1.55-1.55-1.55L4.22,37.65v3.09ZM0,44.96v-9L34.73,1.23c.42-.42.89-.73,1.41-.91s1.03-.28,1.55-.28,1.04.09,1.58.28,1,.49,1.37.91l3.09,3.09c.42.37.74.83.95,1.37s.32,1.07.32,1.58-.11,1.03-.32,1.55-.53.98-.95,1.41L9,44.96H0ZM40.5,7.21l-2.88-2.88,2.88,2.88ZM34.8,13.25l-1.55-1.55-1.55-1.55,3.09,3.09Z"/>
</svg>