<?xml version="1.0" encoding="UTF-8"?>
<svg id="Layer_1" xmlns="http://www.w3.org/2000/svg" version="1.1" viewBox="0 0 16 20">
  <!-- Generator: Adobe Illustrator 29.3.1, SVG Export Plug-In . SVG Version: 2.1.0 Build 151)  -->
  <defs>
    <style>
      .st0 {
        fill: #fff;
      }
    </style>
  </defs>
  <path class="st0" d="M13.6,2.2c-1.6-1.5-3.5-2.2-5.6-2.2S4,.8,2.4,2.2C.8,3.7,0,5.7,0,8.2s.7,3.5,2,5.4c1.3,2,3.3,4.1,6,6.4,2.7-2.3,4.7-4.4,6-6.4s2-3.8,2-5.4c0-2.5-.8-4.5-2.4-6ZM9.4,9.4c-.4.4-.9.6-1.4.6s-1-.2-1.4-.6c-.4-.4-.6-.9-.6-1.4s.2-1,.6-1.4.9-.6,1.4-.6,1,.2,1.4.6.6.9.6,1.4-.2,1-.6,1.4Z"/>
</svg>