<?xml version="1.0" encoding="UTF-8"?>
<svg id="Layer_3" data-name="Layer 3" xmlns="http://www.w3.org/2000/svg" viewBox="0 0 5165.7 3194.55">
  <defs>
    <style>
      .cls-1 {
        fill: #fff;
      }

      .cls-2 {
        fill: #1a1a1b;
      }
    </style>
  </defs>
  <rect class="cls-2" x="0" y="0" width="5165.7" height="3194.55" rx="1597.27" ry="1597.27"/>
  <g>
    <path class="cls-1" d="M2975.19,652.96c202.28-23.71,386.24,77.95,565.24,156.87,161.68,72.42,354.47,206.96,275.84,396.52-133.3,266.89-477.17-31.23-658.1-92.31-96.83-29.51-142.78,18.94-87.98,77.84,94.35,93.85,270.99,168.29,383.96,255.71,106.32,76.68,210.85,171.65,287.16,281.89,167.38,236.18,212,576.09-58.37,752.99-271.23,182.3-657.39,121.3-910.47-63.59-158.3-106.67-270.05-254.88-338.29-426.4-53.7-121.67-120.93-275.02-47.55-400.81,74.57-131.51,257.67-119.94,361.73-21.07,84.35,71.39,126.68,175.78,186.36,263.09,72.16,114.43,228.82,218.49,364.93,179.79,166.53-57.46,41.58-209.55-66.33-263.89-196.54-113.06-446.15-183.65-564.4-393.6-158.65-272.55-32.87-670.28,302.24-702.53l4.03-.5Z"/>
    <path class="cls-1" d="M1838.69,2064.45c7.83,4.04,19.83-.86,35.3-12.8,25.36-19.93,54.93-51.4,82.37-74.52,80.65-78.22,229.71-107.97,304.18-11.88,93.14,120.27,16.57,262.81-74.94,370.9-77.42,94.8-175.43,184.78-283.38,229.68-198.75,90.62-455.73-21.63-546.81-220.33-60.67-123.04-68.4-258.18-65.53-391.54,19.68-390.99,251.68-909.61,564.67-1174.6,108.54-83.02,236.54-178.67,379.11-182.36,155.64-4.77,268.55,150.03,242.72,299.45-19.87,132.37-126.6,225.64-214.08,318.29-211.1,205.18-366.7,457.3-425.67,745.19-4.75,31.55-19.88,81.45,1.07,103.93l1,.57Z"/>
  </g>
</svg>