<?xml version="1.0" encoding="UTF-8"?>
<svg id="Layer_3" data-name="Layer 3" xmlns="http://www.w3.org/2000/svg" viewBox="0 0 5176.79 3200">
  <defs>
    <style>
      .cls-1 {
        fill: #1a1a1b;
      }
    </style>
  </defs>
  <path class="cls-1" d="M1916.22,2.72h-307.86C726.22,2.72,11.11,717.84,11.11,1599.98v.03c1052.21,0,1905.12-715.15,1905.12-1597.29Z"/>
  <path class="cls-1" d="M5176.79,2.73H1916.21v1597.29h3260.58V2.73ZM3428.96,801.36c0-193.55,156.89-350.44,350.44-350.44s350.44,156.89,350.44,350.44-156.89,350.47-350.44,350.47-350.44-156.92-350.44-350.47Z"/>
  <path class="cls-1" d="M11.11,1600.02v5.36c2.12,0,4.24-.07,6.36-.07,523.82,0,998.07,178.12,1341.59,466.2,343.55,288.05,556.31,686.01,557.17,1125.76v-1597.26H11.11Z"/>
  <path class="cls-1" d="M5176.8,1600.02c-1426.49,0-3260.58,715.12-3260.58,1597.26h1663.32c882.14,0,1597.26-715.12,1597.26-1597.26h0Z"/>
</svg>