<?xml version="1.0" encoding="UTF-8"?>
<svg id="Layer_3" data-name="Layer 3" xmlns="http://www.w3.org/2000/svg" viewBox="0 0 5165.7 3194.55">
  <defs>
    <style>
      .cls-1 {
        fill: #fff;
      }

      .cls-2 {
        fill: #1a1a1b;
      }
    </style>
  </defs>
  <path class="cls-2" d="M3568.42,200c94.93,0,189.75,9.55,281.81,28.39,89.62,18.34,177.77,45.7,262.01,81.33,82.75,35,162.58,78.33,237.27,128.79,74.03,50.01,143.65,107.46,206.93,170.74,63.28,63.28,120.72,132.9,170.74,206.93,50.46,74.69,93.79,154.52,128.79,237.27,35.63,84.24,62.99,172.39,81.33,262.01,18.84,92.06,28.39,186.88,28.39,281.82s-9.55,189.75-28.39,281.81c-18.34,89.62-45.7,177.77-81.33,262.01-35,82.75-78.33,162.58-128.79,237.27-50.01,74.03-107.46,143.65-170.74,206.93-63.28,63.28-132.9,120.72-206.93,170.74-74.69,50.46-154.52,93.79-237.27,128.79-84.24,35.63-172.39,62.99-262.01,81.33-92.06,18.84-186.88,28.39-281.81,28.39h-1971.15c-94.93,0-189.75-9.55-281.81-28.39-89.62-18.34-177.77-45.7-262.01-81.33-82.75-35-162.58-78.33-237.27-128.79-74.03-50.01-143.65-107.46-206.93-170.74-63.28-63.28-120.72-132.9-170.74-206.93-50.46-74.69-93.79-154.52-128.79-237.27-35.63-84.24-62.99-172.39-81.33-262.01-18.84-92.06-28.39-186.88-28.39-281.81s9.55-189.75,28.39-281.81c18.34-89.62,45.7-177.77,81.33-262.01,35-82.75,78.33-162.58,128.79-237.27,50.01-74.03,107.46-143.65,170.74-206.93,63.28-63.28,132.9-120.72,206.93-170.74,74.69-50.46,154.52-93.79,237.27-128.79,84.24-35.63,172.39-62.99,262.01-81.33,92.06-18.84,186.88-28.39,281.81-28.39h1971.15M3568.42,0h-1971.15C715.12,0,0,715.12,0,1597.28H0C0,2479.43,715.12,3194.55,1597.27,3194.55h1971.15c882.15,0,1597.27-715.12,1597.27-1597.27h0C5165.7,715.12,4450.57,0,3568.42,0h0Z"/>
  <g>
    <path class="cls-2" d="M4486.59,2121.7c-4.82-76.78-18.13-154.91-39.54-232.22-19.88-71.74-46.81-143.08-80.09-212.05-27.41-56.82-59.15-112.12-94.56-164.78-.44-.66-.39-1.54.15-2.12,0,0,0,0,0-.01,39.04-44.76,73.05-95.92,101.09-152.04l7.02-14.04s.04-.07.05-.11l6.01-14.5c28.34-68.29,45.87-138.95,52.13-209.99,6.36-71.93,1.16-144-15.41-214.21-14.8-62.64-38.68-123.7-71-181.47-26.75-47.83-59.64-93.99-97.78-137.2-99.68-112.98-237.68-209.42-410.15-286.68l-1.2-.53-1.2-.54c-24.17-10.64-49.08-22.01-75.44-34.03-180.41-82.29-404.96-184.68-674.19-184.7h-.07c-40.28,0-80.79,2.35-120.39,6.99l-1.36.17-.88.09c-77.71,8.07-153.33,25.71-224.86,52.48-33.21,12.44-65.62,26.85-96.99,43.15-.61.32-1.36.24-1.89-.2-3.04-2.5-6.09-4.98-9.17-7.43-39.59-31.55-82.46-58.88-127.42-81.22-47.4-23.54-97.43-41.7-148.67-53.99-53.21-12.73-108.05-19.2-162.99-19.2h-.07c-6.69,0-13.54.1-20.31.3-80.21,2.16-161.53,16.25-241.73,41.86-63.5,20.31-125.62,47.29-189.88,82.53-96.24,52.76-176.04,112.05-256.05,173.25l-8.87,6.78-8.52,7.23c-113.65,96.2-221.15,214.45-319.53,351.44-89.19,124.17-169.41,261.53-238.43,408.23-67.2,142.82-121.64,289.84-161.79,436.98-42.28,154.9-67.31,305-74.42,446.14l-.33,6.46-.14,6.48c-1.55,72.1-1.75,181.28,14.25,296.37,8.3,59.68,20.46,117.58,36.12,172.11,17.51,60.92,40.03,119.87,66.98,175.35,37.89,81.08,88.11,156.51,149.36,224.31,58.66,64.93,126.44,121.75,201.47,168.91,73.99,46.52,153.65,82.75,236.75,107.71,87.17,26.18,176.49,39.45,265.47,39.45,59.99,0,119.78-6.12,177.71-18.19,58.81-12.24,116.19-30.74,170.7-54.96,96.81-41.14,191.61-100.33,281.86-175.99,45.73-38.33,90.48-81.02,133.76-127.54.63-.68,1.68-.74,2.39-.14,39.26,33.45,80.37,64.84,123.17,94.05,58.5,42.16,121.38,80.5,187.04,114.02,67.24,34.31,137.92,63.84,210.05,87.74,72.98,24.18,148.05,42.81,223.11,55.34,77.8,13.01,156.36,19.6,233.47,19.6,118.87,0,234.9-15.54,344.89-46.19,120.1-33.47,232.28-84.75,333.47-152.41,108.96-71.72,199.12-160.99,268.02-265.32,66.04-100.03,111.08-211.64,133.85-331.75,15.28-80.6,20.33-164.64,14.98-249.8ZM1816.88,2687.28c-53.63,24.46-111.08,35.79-168.77,35.79-182.9,0-368.68-113.76-446.6-283.75-68.27-138.47-76.98-290.56-73.75-440.63,22.15-440.02,283.24-1023.65,635.47-1321.87,122.15-93.43,266.19-201.07,426.64-205.23,2.63-.07,5.27-.12,7.88-.12,39.57,0,76.58,9.17,109.71,25.34,74.69,36.42,129.76,108.32,150.59,190.56,9.88,38.97,12.05,80.28,4.97,121.22-10.5,70-42.61,130.31-83.93,185.39-46.57,62.09-104.81,117.54-156.99,172.81-135.56,131.76-250.79,280.72-337.09,444.55-64.93,123.27-113.47,254.96-141.97,394.05-5.34,35.42-22.28,91.35,1,116.76.13.14.29.27.46.36l.86.48c2.05,1.06,4.34,1.58,6.88,1.58,8.4,0,19.46-5.65,32.85-15.98,28.52-22.42,61.79-57.8,92.66-83.83.03-.02.05-.04.07-.07,11.48-11.12,24.19-21.37,37.8-30.58,46.49-31.44,103.5-50.67,158.13-50.67,22.29,0,44.19,3.2,64.82,10.08,31.09,10.38,59.28,29.1,81.53,57.84,53.91,69.6,57.29,145.83,33.88,220.01-22.13,70.08-68.19,138.31-118.21,197.38-5.76,7.05-11.62,14.09-17.59,21.08-84.17,98.77-187.87,190.23-301.32,237.41ZM3820.89,2593.46c-127.39,85.63-277.35,123.57-429.51,123.57-212.43,0-429.18-73.89-595.11-195.13-47.21-31.81-90.74-66.89-130.66-104.9-69.14-65.8-127.44-140.35-175.21-221.58-28.73-48.84-53.64-100.12-74.84-153.38-31.65-71.73-67.5-153.25-82.56-234.96-13.72-74.27-10.28-148.7,29.04-216.1,40.17-70.84,108.34-104.8,181.33-108.73,4.82-.27,9.66-.39,14.53-.39,75.21,0,153.88,30.93,211.23,85.42,94.93,80.34,142.57,197.81,209.72,296.06,69.41,110.05,208.29,211.59,342.8,211.59,22.86,0,45.57-2.92,67.83-9.24.04-.01.08-.02.11-.04,187.32-64.68,46.73-235.81-74.71-296.96-218.98-125.97-496.51-205.09-631.14-435.96-1.37-2.31-2.7-4.65-4.02-6.99-47.17-81-71.99-171.86-76.05-262.35-5.31-118.69,25.11-236.77,87.75-331.32,48.2-72.75,115.46-131.55,200.22-165.95,39.07-15.85,81.86-26.54,128.21-30.99l4.55-.55c22.87-2.68,45.57-3.93,68.04-3.93,201.18-.02,386.86,100.59,568.07,180.47,181.95,81.5,398.87,232.88,310.45,446.18-.02.04-.04.09-.06.13-45.02,90.08-111.39,122.94-187.7,122.94-178.05,0-410.36-178.78-552.89-226.88-22.66-6.91-42.85-10.01-60.05-10.01-65.53-.02-87.8,45.11-38.95,97.61,106.18,105.6,304.96,189.39,432.11,287.77,119.65,86.28,237.28,193.16,323.16,317.23,188.37,265.8,238.58,648.32-65.68,847.39Z"/>
    <path class="cls-1" d="M3822.06,2592.86c-297.89,200.19-714.09,140.73-998.46-51.47-64.95-43.43-127.41-91.53-181.94-147.62-110.74-110.54-186.88-240.72-244.11-384.61-54.03-126.29-110.82-281.04-35.02-410.84,53.48-95.26,165.87-126.21,266.66-99.6,87.53,21.18,158.44,83.68,211.85,154,68.74,90.38,111.5,197.4,187.99,281.74,88.31,95.69,234.73,171.54,365.75,126.94,164.74-60.48,54.23-215.73-65.64-284.33-15.28-9.17-30.58-17.57-46.11-25.99-297.49-156.35-625.72-252.78-675.85-638.4-16.24-136.56,15.95-289.2,98.09-400.24,65.17-89.66,165.26-152.71,274.74-171.58,240.17-46.59,466.35,73.52,680.54,169.87,160.03,72.21,375.93,209.77,321.09,412.66-19.54,67.68-71.02,130.26-140.98,148.27-226.25,60.42-550.74-264.2-695.18-221.81-43.15,12.51-42.24,48.07-19.42,80.2,14.43,20.81,34.44,37.38,53.98,52.8,104.4,81.25,239.55,144.51,350.16,221.74,93.09,65.54,182.65,138.34,260.39,222.45,256.3,262.02,382.84,736.77,31.65,965.68l-.18.12Z"/>
    <path class="cls-1" d="M2462.93,808.27c-21.43,140.87-130.13,243.31-224.26,341.23-247.17,238.76-436.71,535.96-499.15,876.38-2.72,20.68-6.32,43.06-2.48,63.49,5.35,28.22,23.94,34.98,47.39,20.54,15.84-9.5,29.68-22.88,43.08-35.58,19.36-18.85,38.78-37.57,58.93-55.46,25.27-22.43,53.94-40.83,85.21-53.63,43.07-17.63,90.1-25.1,136.1-18.01,80.13,11.13,137.93,78.4,154.68,155.04,9.62,44.16,4.1,90.12-9.84,132.9-24.95,76.36-74.45,144.45-126.97,206.41-84.86,100.85-188.65,195.24-308.69,246.06-215.32,96.84-486.1-14.35-598.96-215.89-76.52-135.15-93.22-292.01-90.97-444.23,24.68-557.43,394.73-1358.07,975.55-1541.49,24.12-7.62,49.05-12.53,74.3-13.92,34.19-1.88,68.64,1.48,101.13,12.7,129.54,43.26,208.51,190.12,184.97,323.26l-.03.2Z"/>
  </g>
</svg>