<?xml version="1.0" encoding="UTF-8"?>
<svg id="Layer_3" data-name="Layer 3" xmlns="http://www.w3.org/2000/svg" viewBox="0 0 5165.7 3194.55">
  <defs>
    <style>
      .cls-1 {
        fill: #fff;
      }

      .cls-2 {
        fill: #1a1a1b;
      }
    </style>
  </defs>
  <path class="cls-2" d="M1597.27,2994.55c-188.72,0-371.69-36.92-543.82-109.72-82.75-35-162.58-78.33-237.27-128.79-74.03-50.01-143.65-107.46-206.93-170.74-63.28-63.28-120.72-132.9-170.74-206.93-50.46-74.69-93.79-154.52-128.79-237.27-72.81-172.13-109.72-355.1-109.72-543.82s36.92-371.69,109.72-543.82c35-82.75,78.33-162.58,128.79-237.27,50.01-74.03,107.46-143.65,170.74-206.93,63.28-63.28,132.9-120.72,206.93-170.74,74.69-50.46,154.52-93.79,237.27-128.79,172.13-72.81,355.1-109.72,543.82-109.72h1971.15c188.72,0,371.69,36.92,543.82,109.72,82.75,35,162.58,78.33,237.27,128.79,74.03,50.01,143.65,107.46,206.93,170.74s120.72,132.9,170.74,206.93c50.46,74.69,93.79,154.52,128.79,237.27,72.81,172.13,109.72,355.1,109.72,543.82s-36.92,371.69-109.72,543.82c-35,82.75-78.33,162.58-128.79,237.27-50.01,74.03-107.46,143.65-170.74,206.93s-132.9,120.72-206.93,170.74c-74.69,50.46-154.52,93.79-237.27,128.79-172.13,72.81-355.1,109.72-543.82,109.72h-1971.15Z"/>
  <g>
    <path class="cls-1" d="M2975.19,652.96c202.28-23.71,386.24,77.95,565.24,156.87,161.68,72.42,354.47,206.96,275.84,396.52-133.3,266.89-477.17-31.23-658.1-92.31-96.83-29.51-142.78,18.94-87.98,77.84,94.35,93.85,270.99,168.29,383.96,255.71,106.32,76.68,210.85,171.65,287.16,281.89,167.38,236.18,212,576.09-58.37,752.99-271.23,182.3-657.39,121.3-910.47-63.59-158.3-106.67-270.05-254.88-338.29-426.4-53.7-121.67-120.93-275.02-47.55-400.81,74.57-131.51,257.67-119.94,361.73-21.07,84.35,71.39,126.68,175.78,186.36,263.09,72.16,114.43,228.82,218.49,364.93,179.79,166.53-57.46,41.58-209.55-66.33-263.89-196.54-113.06-446.15-183.65-564.4-393.6-158.65-272.55-32.87-670.28,302.24-702.53l4.03-.5Z"/>
    <path class="cls-1" d="M1838.69,2064.45c7.83,4.04,19.83-.86,35.3-12.8,25.36-19.93,54.93-51.4,82.37-74.52,80.65-78.22,229.71-107.97,304.18-11.88,93.14,120.27,16.57,262.81-74.94,370.9-77.42,94.8-175.43,184.78-283.38,229.68-198.75,90.62-455.73-21.63-546.81-220.33-60.67-123.04-68.4-258.18-65.53-391.54,19.68-390.99,251.68-909.61,564.67-1174.6,108.54-83.02,236.54-178.67,379.11-182.36,155.64-4.77,268.55,150.03,242.72,299.45-19.87,132.37-126.6,225.64-214.08,318.29-211.1,205.18-366.7,457.3-425.67,745.19-4.75,31.55-19.88,81.45,1.07,103.93l1,.57Z"/>
  </g>
</svg>