<?xml version="1.0" encoding="UTF-8"?>
<svg id="Layer_3" data-name="Layer 3" xmlns="http://www.w3.org/2000/svg" viewBox="0 0 7652.17 3102.68">
  <defs>
    <style>
      .cls-1 {
        fill: #1a1a1b;
      }
    </style>
  </defs>
  <g>
    <path class="cls-1" d="M0,1958.41v184.91c0,529.84,429.52,959.36,959.36,959.36h.02c0-631.99-429.54-1144.27-959.39-1144.27Z"/>
    <path class="cls-1" d="M0,0v1958.41h959.39V0H0ZM479.68,1049.81c-116.25,0-210.49-94.23-210.49-210.49s94.23-210.49,210.49-210.49,210.51,94.23,210.51,210.49-94.25,210.49-210.51,210.49Z"/>
    <path class="cls-1" d="M959.39,3102.68h3.22c0-1.27-.04-2.55-.04-3.82,0-314.62,106.98-599.47,280.02-805.8,173.01-206.35,412.04-334.14,676.17-334.65h-959.37v1144.27Z"/>
    <path class="cls-1" d="M959.39,0c0,856.8,429.52,1958.41,959.37,1958.41v-999.05C1918.75,429.52,1489.23,0,959.39,0h0Z"/>
  </g>
  <path class="cls-1" d="M2703.63,2527.28c0,57.84-20.85,103.23-62.55,136.15-41.7,32.93-99.22,49.39-172.57,49.39s-133.38-11.41-180.11-34.26v-100.56c29.56,13.95,61,24.92,94.27,32.93,33.27,8.01,64.25,12.01,92.94,12.01,41.98,0,72.98-8.01,92.94-24.03,19.96-16.02,29.94-37.52,29.94-64.52,0-24.32-9.17-44.94-27.5-61.85-18.35-16.91-56.19-36.93-113.57-60.07-59.16-24.03-100.86-51.46-125.1-82.31-24.25-30.85-36.38-67.92-36.38-111.23,0-54.28,19.22-97,57.67-128.14,38.44-31.15,90.06-46.72,154.83-46.72s123.92,13.64,185.44,40.93l-33.72,86.76c-57.67-24.32-109.13-36.48-154.38-36.48-34.32,0-60.33,7.5-78.08,22.47-17.75,14.98-26.62,34.78-26.62,59.4,0,16.91,3.55,31.37,10.65,43.38,7.1,12.01,18.78,23.36,35.05,34.04,16.25,10.68,45.53,24.77,87.84,42.27,47.62,19.87,82.51,38.42,104.7,55.62,22.18,17.2,38.44,36.64,48.8,58.29,10.35,21.65,15.53,47.16,15.53,76.53Z"/>
  <path class="cls-1" d="M3634.88,2712.82l-64.77-180.64h-247.99l-63.44,180.64h-111.79l242.66-653.17h115.34l242.66,653.17h-112.68ZM3542.16,2440.52l-60.78-177.08c-4.44-11.86-10.57-30.55-18.41-56.06-7.84-25.51-13.23-44.2-16.19-56.06-7.99,36.48-19.67,76.38-35.05,119.69l-58.56,169.52h188.99Z"/>
  <path class="cls-1" d="M4190.81,2712.82v-650.5h106.03v650.5h-106.03Z"/>
  <path class="cls-1" d="M4740.09,2712.82v-653.17h106.03v561.58h274.61v91.59h-380.63Z"/>
  <path class="cls-1" d="M6171.75,2377.79c0,105.89-26.4,188.21-79.19,246.94-52.79,58.73-127.54,88.1-224.25,88.1s-173.09-29.14-225.58-87.43c-52.51-58.29-78.74-141.11-78.74-248.5s26.4-189.83,79.19-247.38c52.79-57.55,128.13-86.32,226.03-86.32s170.94,29.22,223.59,87.65c52.63,58.44,78.97,140.75,78.97,246.94ZM5676.66,2377.79c0,80.09,16.12,140.82,48.36,182.2,32.22,41.38,80,62.07,143.29,62.07s110.53-20.47,142.63-61.4c32.09-40.93,48.13-101.89,48.13-182.87s-15.91-140.3-47.69-181.53c-31.79-41.22-79.19-61.85-142.18-61.85s-111.57,20.62-143.96,61.85c-32.38,41.23-48.58,101.74-48.58,181.53Z"/>
  <path class="cls-1" d="M6721.03,2452.98v259.84h-106.03v-650.5h183.22c83.69,0,145.66,15.73,185.88,47.16,40.21,31.44,60.33,78.91,60.33,142.38,0,80.98-42,138.67-125.99,173.08l183.22,287.87h-120.67l-155.27-259.84h-104.7ZM6721.03,2364.88h73.64c49.39,0,85.18-9.19,107.36-27.59,22.18-18.39,33.27-45.67,33.27-81.87s-11.98-63.18-35.93-79.2-60.05-24.03-108.25-24.03h-70.09v212.68Z"/>
  <path class="cls-1" d="M2303.46,1897.76V389.87h385.11v1507.9h-385.11Z"/>
  <path class="cls-1" d="M3779.21,648.71c-144.94,0-257.16,43.99-336.66,131.93-79.51,87.95-119.26,210.53-119.26,367.7,0,327.06,151.98,490.6,455.93,490.6,127.54,0,282-25.74,463.38-77.25v260.85c-149.08,50.16-315.55,75.24-499.41,75.24-264.2,0-466.28-64.71-606.24-194.13-139.97-129.42-209.95-315.18-209.95-557.31,0-152.5,34.37-286.08,103.11-400.8,68.74-114.71,167.5-202.66,296.29-263.86,128.79-61.2,279.73-91.8,452.82-91.8s353.64,34.46,531.71,103.34l-124.23,252.82c-67.91-26.08-136.24-48.81-204.98-68.22-68.74-19.4-136.24-29.09-202.5-29.09Z"/>
  <path class="cls-1" d="M6010.29,1897.76h-437.29l-475.8-635.34-162.74,96.95v538.39h-385.11V389.86h385.11v690l151.56-177.4,491.95-512.6h427.35l-633.58,667.31,638.54,840.59Z"/>
  <path class="cls-1" d="M6858.33,1010.77l378.9-620.9h414.93l-602.52,921.03v586.86h-382.63v-576.55l-602.52-931.35h417.41l376.42,620.9Z"/>
</svg>