<?xml version="1.0" encoding="UTF-8"?>
<svg id="Layer_4" data-name="Layer 4" xmlns="http://www.w3.org/2000/svg" viewBox="0 0 48 48">
  <path d="M20.72,30.94c.25.15.51.28.79.4.99.43,2.1.59,3.27.39.21-.03.42-.07.62-.12.03,0,.06,0,.09-.02,0,0,.02,0,.03,0,.23-.06.46-.14.68-.22.09-.03.18-.06.27-.1.02,0,.04-.02.06-.03.02,0,.04-.02.06-.03.28-.12.53-.26.71-.42.03-.03.03-.08,0-.14-.02-.06-.05-.12-.1-.2-.09-.15-.22-.34-.33-.54-.25-.41-.34-.64-.58-.51-.25.14-.52.26-.79.36-.1.04-.2.05-.3.08-.18.06-.37.11-.56.15-.1.02-.2.02-.3.03-.19.02-.38.04-.57.04-.13,0-.26-.03-.38-.04-.16-.02-.32-.03-.48-.07-.25-.05-.48-.12-.7-.21-.02,0-.03-.02-.05-.02-.19-.08-.36-.17-.52-.26-.08-.05-.16-.09-.24-.15-.02-.01-.03-.02-.05-.03,0,0,0,0,0,0-.54-.39-.99-.9-1.32-1.48-.03-.06-.06-.12-.09-.18-.04-.08-.08-.16-.12-.24-.07-.17-.14-.35-.19-.53-.01-.04-.02-.08-.03-.11-.05-.17-.08-.34-.11-.51-.02-.1-.02-.2-.03-.31-.01-.11-.02-.22-.02-.33,0-.21,0-.43.02-.64,0,0,0,0,0,0,.08-.67.3-1.32.65-1.9.03-.05.06-.1.1-.16.09-.12.18-.24.29-.36h-.01c.15-.18.31-.35.49-.5.01-.01.02-.02.04-.03.11-.09.23-.18.35-.26.07-.05.15-.09.23-.14.23-.13.47-.25.72-.35.02,0,.03-.01.05-.02.63-.23,1.31-.32,1.98-.28,0,0,.01,0,.02,0,.05,0,.1.01.15.02.14.02.27.04.41.06,0,0,0,0,.01,0,.51.11,1.01.3,1.46.56.05.03.1.07.15.1.09.06.18.11.26.17.07.05.13.1.19.15.06.05.13.1.19.16.02.02.05.05.07.07.05.04.09.09.13.13.04.04.08.09.13.14h0c.15.16.27.33.38.5.01.02.02.03.04.05,0,0,.01.02.01.02.01.02.02.05.04.07.29.53.48,1.16.54,1.79,0,.05,0,.1,0,.16,0,.09,0,.17,0,.26,0,.19-.02.4-.05.61-.05.29-.13.58-.27.83-.06.1-.13.19-.21.28-.16.13-.38.2-.65.16-.04-.01-.08-.04-.11-.06-.05-.04-.09-.08-.11-.12-.03-.05-.06-.1-.07-.16,0,0,0,0,0,0,0-.01,0-.03,0-.04,0-.12-.02-.24-.02-.38,0-.11,0-.21,0-.33,0-.02,0-.03,0-.04v-1.15c0-.25,0-.5,0-.74,0-.43,0-.84,0-1.18,0-.14,0-.26,0-.36,0-.04,0-.09,0-.12,0-.03,0-.05,0-.07,0,0,0-.02,0-.03,0,0,0,0,0,0-.01-.03-.03-.05-.08-.04-.03,0-.08,0-.12,0,0,0,0,0-.01,0,0,0-.02,0-.03,0-.04,0-.1,0-.15,0-.04,0-.08,0-.12,0-.09,0-.19,0-.29,0-.19,0-.38,0-.56,0-.09,0-.17,0-.23,0-.02,0-.04,0-.07,0,0,0-.02,0-.02,0-.12-.02-.16,0-.18.03,0,0-.01,0-.01,0,0,0,0,0,0,0,0,.01,0,.02-.01.04-.04.02-.09.03-.15.04-.04,0-.09,0-.15-.02-.23-.08-.46-.12-.7-.15-.17-.03-.34-.04-.49-.03h-.01s-.06,0-.08,0c-.13.01-.24.02-.3.03-.64.08-1.17.34-1.59.71-.08.07-.17.14-.24.21,0,0,0,0-.01,0,0,0,0,0,0,0-.01.01-.02.03-.03.04,0,.01-.02.02-.03.03,0,0,0,0,0,0-.11.13-.21.26-.3.4,0,0,0,.01,0,.02,0,.01-.01.02-.02.03-.03.05-.06.09-.08.14-.04.08-.08.17-.12.26-.02.04-.04.07-.06.12-.02.05-.03.09-.04.14,0,.01-.01.02-.02.04-.31.77-.23,1.58.08,2.28.2.53.54,1,1.03,1.37.03.02.05.05.08.07.1.07.2.12.31.18.02,0,.03.02.05.03.23.12.48.21.75.28.22.06.44.1.67.11.15.01.31,0,.46-.02.12-.01.23-.03.35-.07.07-.02.13-.04.2-.07.06-.02.11-.04.17-.06.05-.02.09-.03.14-.05.05-.02.1-.05.14-.07.17-.07.34-.15.5-.22h0c.14.09.28.16.41.23.09.07.18.13.28.16.04.02.08.02.12.03.12.05.24.08.36.1.02,0,.04,0,.05.01,0,0,.01,0,.02,0h0s.02,0,.04,0c.07,0,.14.02.21.02.29.02.57,0,.83-.07.42-.1.79-.31,1.11-.6.18-.14.34-.3.44-.46l.08-.1c.05-.07.08-.15.12-.22.03-.05.05-.09.08-.14.1-.19.19-.39.26-.59.02-.06.05-.13.07-.19.03-.11.07-.21.09-.32.03-.12.05-.23.07-.35,0-.02,0-.03,0-.05.02-.15.04-.29.05-.44,0-.01,0-.03,0-.04.01-.23,0-.46-.01-.68,0-.04,0-.08-.01-.13-.01-.09-.02-.17-.04-.25-.04-.21-.08-.41-.16-.6l-.04-.12c-.03-.09-.07-.17-.1-.26-.06-.16-.11-.32-.18-.48-.07-.15-.15-.29-.23-.44-.06-.11-.12-.23-.19-.33-.1-.16-.22-.3-.34-.45-.07-.08-.13-.16-.2-.24-.13-.15-.27-.28-.42-.41-.07-.06-.14-.13-.21-.19-.14-.12-.29-.22-.44-.32-.83-.62-1.8-1.04-2.82-1.14-1.57-.22-2.95.08-4.06.72-.02.01-.05.02-.07.04-.08.04-.15.09-.22.14-.04.03-.09.06-.13.09-.11.07-.22.14-.33.22-.01.01-.03.02-.04.03-.41.31-.77.69-1.09,1.13,0,0-.01.01-.02.02h-.01s-.03.05-.04.07c-.03.04-.06.07-.09.11,0,0,0,0,0,0-.05.06-.08.13-.12.19-.06.1-.13.19-.19.29-.03.05-.05.1-.07.15-.57,1-.83,2.06-.8,3.1,0,.23.04.47.07.7.18,1.82,1.14,3.58,3.07,4.71ZM24.34,27.12h-.01s-.08.04-.12.04c-.04.02-.09.03-.14.04-.09.02-.19.03-.29.03-.03,0-.06,0-.09-.01-.08,0-.17,0-.25-.03-.09-.02-.16-.04-.24-.07h-.01s-.41-.26-.41-.26c-.02,0-.03,0-.04-.03-.35-.3-.57-.76-.57-1.27,0-.64.35-1.2.87-1.47.22-.13.47-.2.74-.2.35,0,.68.12.94.32.41.3.67.79.67,1.35,0,.72-.44,1.33-1.05,1.56Z"/>
  <path d="M1.43,5.78h0v35.89h45V5.78H1.43ZM26.91,34.29c1.25-.46,2.73-1.04,3.27-2.42.13-.31.14-.69.29-.95,2.41-1.85,3.35-5.21,2.45-8.11l-.04-.13c-.05-.15-.1-.29-.15-.43,3.17-1.88,6.49-3.99,9.7-5.99v21.42H5.43v-21.48c.98.6,2.21,1.37,4.38,2.71,2.01,1.25,3.63,2.25,5.37,3.32-.07.2-.14.4-.21.61-2.27,6.99,5.02,14.05,11.94,11.46ZM18.09,21.06s-.02,0-.02-.01c.2-.26.42-.5.67-.73.09-.1.19-.19.29-.28,1.25-1.07,2.86-1.67,4.5-1.78.06,0,.12,0,.17,0,.12,0,.24,0,.37,0,.38,0,.76.04,1.14.09,1.83.35,3.54,1.34,4.67,2.77,0,0,0,0,0,.01.12.31.45.69.6,1.04.16.27.29.68.42.97.18.6.31,1.25.35,1.96,0,.09,0,.19,0,.28,0,.06,0,.11-.01.17-.01.18-.04.37-.07.55-.09.5-.24.99-.46,1.44-.09.18-.19.36-.3.53,0,.01-.02.03-.03.04-.26.38-.56.71-.91.99-.11.09-.23.17-.35.24-.05.03-.11.07-.16.1-.12.07-.24.13-.36.19-.18.08-.36.16-.56.21,0,0,0,0,0,0-.02.02-.01.05,0,.09,0,.01.01.02.02.03,0,0,0,0,0,0,0,0,0,.01,0,.02.02.03.03.06.05.09.04.06.07.12.11.18,0,.01.02.03.02.04.02.04.03.09.05.13.02.06.04.12.05.17,0,.03.01.06.01.09.02.25-.06.47-.2.67-.1.11-.2.21-.32.3-.58.37-1.2.65-1.84.84-.18.05-.36.09-.54.13-.35.07-.67.12-.94.15-.2.02-.41.03-.61.03-.06,0-.12,0-.18,0-.23,0-.45-.02-.68-.04-.07,0-.13-.02-.2-.03-.21-.03-.43-.07-.64-.12-.05-.01-.11-.03-.16-.04-.03,0-.05-.01-.08-.02-.19-.05-.37-.11-.55-.18-1.35-.5-2.55-1.4-3.41-2.56-.05-.08-.11-.15-.17-.23-.02-.03-.04-.07-.07-.1-1.06-1.73-1.42-3.9-.94-5.88.03-.13.07-.25.11-.37.29-.62.68-1.58,1.13-2.09v-.06ZM31.57,20c-3.58-5.03-11.62-5-15.23-.02-3.53-2.18-7.38-4.57-10.92-6.76v-3.45h37v3.51c-3.05,1.88-8.21,5.08-10.85,6.71Z"/>
</svg>