<?xml version="1.0" encoding="UTF-8"?>
<svg id="Layer_3" data-name="Layer 3" xmlns="http://www.w3.org/2000/svg" viewBox="0 0 1947.36 3148.94">
  <defs>
    <style>
      .cls-1 {
        fill: #1a1a1b;
      }
    </style>
  </defs>
  <path class="cls-1" d="M14.3,1981.54v184.91c0,529.84,429.52,959.36,959.36,959.36h.02c0-631.99-429.54-1144.27-959.39-1144.27Z"/>
  <path class="cls-1" d="M14.3,23.14v1958.41h959.39V23.14H14.3ZM493.99,1072.94c-116.25,0-210.49-94.23-210.49-210.49s94.23-210.49,210.49-210.49,210.51,94.23,210.51,210.49-94.25,210.49-210.51,210.49Z"/>
  <path class="cls-1" d="M973.69,3125.81h3.22c0-1.27-.04-2.55-.04-3.82,0-314.62,106.98-599.47,280.02-805.8,173.01-206.35,412.04-334.14,676.17-334.65h-959.37v1144.27Z"/>
  <path class="cls-1" d="M973.69,23.13c0,856.8,429.52,1958.41,959.37,1958.41v-999.05c0-529.84-429.52-959.36-959.36-959.36h0Z"/>
</svg>