<?xml version="1.0" encoding="UTF-8"?>
<svg id="diamond" xmlns="http://www.w3.org/2000/svg" viewBox="0 0 4002 1334">
  <defs>
    <style>
      .cls-1 {
        fill: #1a1a1b;
      }
    </style>
  </defs>
  <path class="cls-1" d="M2001,332.4h-1.1L1667.5,0h0s-333.5,0-333.5,0v333.5h333.5v332.31h-.1l-333.42-332.32-3.46-.15-330.57-.94h-26.59c-81.27-6.54-154.31-42.21-208.69-96.58-60.29-60.29-97.6-143.55-97.68-235.53V0h0s0,0,0,0h0s-1.1,0-1.1,0h0c-183.31.61-331.79,149.09-332.38,332.4h-.01V0H0v333.5h0v165.65C0,453.11,18.67,411.42,48.85,381.24c25.92-25.93,60.34-43.35,98.72-47.74h38.35c38.38,4.4,72.81,21.81,98.73,47.74,30.19,30.18,48.84,71.87,48.84,117.91v-165.65h0v166.75c0,85.32-64.08,155.66-146.73,165.55h-40.05c-38.04-4.55-72.14-21.9-97.88-47.64C18.67,587.99,0,546.29,0,500.25v165.55H0v333.5h333.5s0,0,0,0v-165.59c0-46.04,18.66-87.72,48.83-117.9,30.18-30.18,71.87-48.84,117.91-48.84,91.38,0,165.58,73.5,166.74,164.59v-18.46c.1.81.2,1.63.28,2.44v-3.46c5.47,104.33,91.65,187.23,197.17,187.23h138.44l-2.38.09v.09c90.85,1.96,172.93,38.88,232.79,97.59,61.54,60.35,99.6,143.72,99.6,235.82v-666.99h.84c.18,92.13,37.4,175.54,97.51,235.94,57.68,57.97,136.43,94.74,223.72,97.78-87.51,3.03-166.47,39.81-224.3,97.77-60.41,60.55-97.77,144.2-97.77,236.6h501.36c-91.9,0-166.51-73.61-167.56-164.79v-169.81s-.02,0-.02,0v-176.36c2.39-42.26,20.62-80.32,48.89-108.4,29.14-28.94,68.93-47.28,113.04-48.73h11.26c89.41,2.96,161,76.3,161.14,166.39v335.21c-.14,91.97-74.74,166.49-166.75,166.49h166.75s332.39,0,332.39,0h0s333.51,0,333.51,0h0c-91.65-.3-174.61-37.69-234.72-98-60.35-60.55-97.67-144.19-97.68-236.59h0s0-.01,0-.01l-.02-.1h.02v-333.4h0c.29-91.66,37.56-174.61,97.67-234.72s143.73-97.68,235.82-97.68h0s166.2-.56,166.2-.56L2666.9,0v.13V0h-665.9v333.5M1522.15,172.64c4.27,1.44,8.28,2.56,12.04,3.36,3.75.8,7.34,1.43,10.77,1.9,3.42.46,6.71.97,9.87,1.52,3.17.55,6.33,1.31,9.51,2.27,3.16.98,6.35,2.4,9.56,4.26,3.62,2.11,6.39,4.64,8.29,7.59,1.9,2.96,2.86,6.2,2.86,9.75,0,2.96-.53,5.71-1.6,8.24-1.05,2.53-2.47,4.7-4.24,6.52-1.77,1.81-3.84,3.23-6.2,4.24-2.36,1.01-4.86,1.53-7.47,1.53-1.95,0-3.89-.27-5.83-.84-1.95-.54-3.89-1.41-5.83-2.59-3.21-1.77-6.01-3.75-8.42-5.95-2.41-2.19-4.67-4.54-6.78-7.03-2.11-2.48-4.2-5.09-6.26-7.79-2.07-2.7-4.39-5.51-6.97-8.42-2.58-2.91-5.56-5.89-8.93-8.94-3.38-3.03-7.43-6.07-12.16-9.11.26,5.65.85,10.71,1.78,15.14.93,4.43,2,8.5,3.23,12.21,1.22,3.73,2.48,7.17,3.79,10.33,1.31,3.17,2.54,6.27,3.67,9.31,1.14,3.03,2.07,6.13,2.79,9.25.72,3.12,1.08,6.54,1.08,10.25,0,3.12-.47,5.98-1.4,8.56-.93,2.57-2.26,4.79-3.98,6.64-1.73,1.86-3.85,3.29-6.33,4.31-2.49,1.01-5.27,1.52-8.31,1.52s-5.78-.51-8.23-1.52c-2.44-1.02-4.53-2.45-6.26-4.31-1.73-1.85-3.07-4.07-4-6.64-.93-2.58-1.39-5.44-1.39-8.56,0-3.63.36-7.02,1.07-10.19.72-3.16,1.65-6.28,2.8-9.31,1.14-3.04,2.36-6.14,3.67-9.31,1.31-3.16,2.57-6.6,3.8-10.33,1.22-3.71,2.3-7.78,3.23-12.21.92-4.43,1.52-9.49,1.77-15.14-4.73,3.12-8.8,6.18-12.22,9.18-3.43,3-6.42,5.96-9,8.87-2.57,2.91-4.91,5.72-7.02,8.42s-4.2,5.31-6.28,7.79c-2.07,2.49-4.3,4.84-6.71,7.03-2.4,2.2-5.21,4.18-8.42,5.95-3.64,2.28-7.52,3.43-11.65,3.43-2.62,0-5.09-.52-7.41-1.53s-4.38-2.43-6.15-4.24c-1.77-1.82-3.18-3.99-4.24-6.52-1.06-2.53-1.58-5.28-1.58-8.24,0-3.55.93-6.79,2.78-9.75,1.86-2.95,4.64-5.48,8.37-7.59,3.21-1.86,6.35-3.28,9.43-4.26,3.08-.96,6.2-1.72,9.38-2.27,3.16-.55,6.45-1.06,9.87-1.52,3.42-.47,7.01-1.1,10.77-1.9,3.76-.8,7.81-1.92,12.16-3.36,4.34-1.43,9.01-3.41,13.99-5.95-5.06-2.53-9.75-4.52-14.06-5.96-4.3-1.43-8.33-2.53-12.09-3.29-3.76-.76-7.35-1.35-10.77-1.77-3.42-.42-6.71-.91-9.87-1.46-3.18-.54-6.3-1.3-9.38-2.27-3.08-.97-6.22-2.43-9.43-4.37-3.73-2.11-6.51-4.68-8.37-7.67-1.85-3-2.78-6.27-2.78-9.81,0-2.96.52-5.68,1.58-8.18,1.06-2.49,2.47-4.64,4.24-6.45,1.77-1.82,3.83-3.23,6.15-4.25,2.32-1.01,4.79-1.51,7.41-1.51,4.13,0,8.01,1.09,11.65,3.29,4.81,2.78,8.78,5.97,11.9,9.56s6.3,7.41,9.51,11.46,6.94,8.29,11.2,12.73c4.27,4.44,9.95,8.93,17.04,13.49-.25-5.57-.85-10.57-1.77-15-.93-4.45-2.01-8.5-3.23-12.17-1.23-3.67-2.49-7.07-3.8-10.2-1.31-3.12-2.53-6.22-3.67-9.3-1.15-3.08-2.08-6.21-2.8-9.37-.71-3.18-1.07-6.61-1.07-10.33,0-3.12.46-5.97,1.39-8.54.93-2.59,2.27-4.8,4-6.66,1.73-1.85,3.82-3.29,6.26-4.3,2.45-1.02,5.2-1.52,8.23-1.52,6.17,0,11.05,1.92,14.64,5.76,3.58,3.84,5.38,8.93,5.38,15.26,0,3.72-.36,7.15-1.08,10.33-.72,3.16-1.63,6.29-2.72,9.37-1.1,3.08-2.32,6.18-3.67,9.3-1.35,3.13-2.64,6.53-3.86,10.2-1.23,3.67-2.3,7.72-3.23,12.17-.93,4.43-1.52,9.43-1.78,15,4.73-3.04,8.78-6.06,12.16-9.05,3.37-3,6.35-5.93,8.93-8.81,2.58-2.87,4.9-5.66,6.97-8.36,2.06-2.7,4.15-5.29,6.26-7.78,2.11-2.49,4.37-4.87,6.78-7.1,2.41-2.24,5.21-4.29,8.42-6.14,3.8-2.2,7.68-3.29,11.66-3.29,2.61,0,5.11.5,7.47,1.51,2.36,1.02,4.43,2.43,6.2,4.25,1.77,1.81,3.19,3.96,4.24,6.45,1.07,2.5,1.6,5.22,1.6,8.18,0,3.54-.96,6.81-2.86,9.81-1.9,2.99-4.67,5.56-8.29,7.67-3.3,1.94-6.5,3.4-9.64,4.37-3.12.97-6.26,1.73-9.43,2.27-3.16.55-6.45,1.04-9.87,1.46-3.43.42-7.02,1.01-10.77,1.77-3.76.76-7.77,1.86-12.04,3.29-4.26,1.44-8.88,3.43-13.86,5.96,4.98,2.54,9.6,4.52,13.86,5.95ZM1235.06,431.34c-58.18,58.18-98.18,98.18-120.01,120.01,21.82-21.82,61.83-61.83,120.01-120.01,0,0,0,0,0,0ZM764.88,431.3c.13-.14.28-.29.42-.43.14-.14.29-.29.43-.42,60.01-59.92,142.8-96.94,234.22-96.94s174.21,37.02,234.22,96.94c.14.13.29.28.43.42.05.05.1.1.15.15-212.82,159.55-257.58,159.71-470.06.48.07-.07.13-.14.2-.2ZM764.29,431.9c88.33,88.33,134.6,134.6,138.78,138.78-4.18-4.18-50.45-50.45-138.78-138.78h0ZM668.11,665.85c.01-91.05,36.58-173.53,95.79-233.55,158.73,211.82,159.06,256.95.97,468.09-59.78-60.11-96.75-143-96.77-234.55ZM765.44,900.96c84.85-84.85,130.56-130.56,137.12-137.12-6.56,6.56-52.27,52.27-137.12,137.12h0ZM999.95,998.19c-91.28,0-173.96-36.92-233.95-96.67,210.91-157.92,256.17-157.76,467.42.47-59.95,59.47-142.43,96.2-233.47,96.2ZM1233.9,901.52c-61.37-61.37-102.34-102.34-122.92-122.92l-3.84-3.84,3.84,3.84c20.58,20.58,61.56,61.56,122.92,122.92,0,0,0,0,0,0ZM1235.01,900.41c-.15.15-.29.29-.43.42-.07.07-.13.14-.2.2-158.72-211.89-158.39-256.79.98-469.37,59.59,60.07,96.4,142.82,96.41,234.19-.01,91.56-36.98,174.45-96.77,234.56ZM1834.25,663.69c-45.43,0-86.56-18.42-116.34-48.2-29.77-29.77-48.19-70.9-48.19-116.34s18.42-86.56,48.19-116.34c29.78-29.77,70.91-48.19,116.34-48.19s86.56,18.42,116.34,48.19c29.77,29.78,48.19,70.91,48.19,116.34,0,90.87-73.66,164.54-164.53,164.54ZM2167.75,1211.16c-12.24,0-23.32-4.98-31.34-13.02-8.01-8.05-12.98-19.16-12.98-31.44s4.97-23.4,12.98-31.45c8.02-8.04,19.1-13.02,31.34-13.02s23.32,4.98,31.34,13.02c8.02,8.05,12.98,19.18,12.98,31.45,0,24.56-19.84,44.46-44.32,44.46ZM2167.75,933.93c-28,0-53.34-11.35-71.69-29.69-18.35-18.34-29.69-43.69-29.69-71.69s11.34-53.34,29.69-71.69,43.69-29.69,71.69-29.69,53.34,11.34,71.68,29.69c18.35,18.35,29.7,43.7,29.7,71.69,0,56-45.39,101.38-101.38,101.38ZM2333.39,332.4h-305.36c162.51-13.04,292.18-142.56,305.36-305.04v305.04Z"/>
  <path class="cls-1" d="M1832.04,399.98c-27.99,0-53.35,11.35-71.69,29.7-18.35,18.34-29.69,43.68-29.69,71.69s11.35,53.34,29.69,71.69c18.34,18.35,43.69,29.7,71.69,29.7,55.99,0,101.37-45.39,101.37-101.38,0-28-11.35-53.35-29.69-71.69-18.34-18.35-43.68-29.7-71.68-29.7Z"/>
  <path class="cls-1" d="M3668.5,0v332.4h0c0,181.5-144.96,329.13-325.42,333.41,0,0,0,0,0,0h-8.06s-333.5,0-333.5,0h-263.15c-38.85,0-70.35,31.49-70.35,70.35v192.79c0,38.86,31.5,70.35,70.35,70.35h767.14c46.04,0,83.98,19.88,114.16,50.05,3.51,3.51,6.87,7.18,10.06,11.01.67.79,1.33,1.6,1.98,2.41,22.67,28.15,34.59,63.45,34.59,99.59v9.79c0,36.14-11.92,71.44-34.58,99.59-.66.81-1.32,1.62-1.99,2.42-30.58,36.58-76.55,59.84-127.96,59.84h500.25V333.5h0V0h-333.51ZM2834.75,990.44l-157.89-157.89,157.89-157.88,157.89,157.88-157.89,157.89ZM3168.25,962.74c-35.95,0-68.5-14.56-92.06-38.12-23.56-23.57-38.13-56.12-38.13-92.07s14.57-68.49,38.13-92.06c23.56-23.55,56.11-38.13,92.06-38.13s68.5,14.58,92.06,38.13c23.55,23.57,38.13,56.11,38.13,92.06,0,71.91-58.29,130.19-130.19,130.19ZM3943.8,499.45v.26c-.29,55.73-45.56,100.83-101.37,100.83-21.32,0-41.11-6.59-57.44-17.83h0c-1.09-.75-2.16-1.52-3.21-2.31,9.99,3.98,20.91,6.17,32.33,6.17,48.09,0,87.1-38.84,87.39-86.86v-.17c.01-.13.01-.25.01-.38,0-24.14-9.79-46-25.6-61.81-15.81-15.82-37.66-25.61-61.8-25.61-10.21,0-20.01,1.75-29.11,4.97t0,.01h-.01c-1.08.38-2.14.78-3.2,1.2,16.92-12.65,37.92-20.14,60.66-20.14,27.99,0,53.34,11.34,71.69,29.69,18.35,18.35,29.69,43.69,29.69,71.69,0,.1,0,.19,0,.29Z"/>
  <polygon class="cls-1" points="3001.5 333.5 3335 333.5 3335 0 3001.5 0 3001.5 1.09 2834.75 332.94 3001.5 333.5 3001.5 333.5"/>
  <rect class="cls-1" x="3499.81" y="1140.93" width="54.84" height="54.84" transform="translate(206.94 2836.32) rotate(-45)"/>
  <path class="cls-1" d="M1835.36,1077.51c-24.78,0-47.22,10.05-63.46,26.29s-26.28,38.67-26.28,63.46,10.04,47.21,26.28,63.46c16.24,16.24,38.68,26.28,63.46,26.28,49.57,0,89.75-40.18,89.75-89.74,0-24.79-10.05-47.22-26.29-63.46s-38.68-26.29-63.46-26.29ZM1835.36,1215.45c-13.31,0-25.36-5.39-34.09-14.12-8.72-8.72-14.11-20.77-14.11-34.07s5.39-25.37,14.11-34.09c8.73-8.72,20.78-14.12,34.09-14.12s25.35,5.4,34.08,14.12c8.72,8.72,14.11,20.77,14.11,34.09,0,26.61-21.58,48.19-48.19,48.19Z"/>
  <path class="cls-1" d="M132.42,510.41c-3.75.8-7.34,1.44-10.77,1.9-3.42.46-6.71.97-9.87,1.52-3.17.55-6.29,1.31-9.38,2.28-3.08.97-6.23,2.38-9.43,4.24-3.72,2.11-6.5,4.65-8.36,7.6-1.87,2.96-2.79,6.21-2.79,9.75,0,2.96.52,5.7,1.59,8.24,1.05,2.53,2.47,4.71,4.24,6.52,1.77,1.82,3.82,3.23,6.14,4.24,2.32,1.01,4.79,1.52,7.41,1.52,4.14,0,8.02-1.14,11.65-3.42,3.21-1.77,6.02-3.75,8.42-5.95,2.41-2.19,4.65-4.53,6.72-7.03,2.07-2.49,4.16-5.09,6.27-7.79,2.1-2.7,4.45-5.51,7.02-8.42,2.59-2.92,5.58-5.87,9-8.87,3.42-2.99,7.49-6.05,12.22-9.18-.26,5.66-.85,10.7-1.78,15.13-.93,4.44-2,8.51-3.22,12.23-1.23,3.71-2.49,7.15-3.8,10.33-1.31,3.16-2.53,6.26-3.67,9.3s-2.07,6.14-2.79,9.3c-.72,3.18-1.07,6.58-1.07,10.21,0,3.12.46,5.97,1.39,8.54.93,2.59,2.26,4.8,3.99,6.66,1.72,1.85,3.81,3.29,6.26,4.3,2.45,1.01,5.19,1.52,8.24,1.52s5.8-.51,8.29-1.52c2.49-1.01,4.6-2.45,6.33-4.3,1.73-1.86,3.06-4.07,4-6.66.93-2.57,1.39-5.42,1.39-8.54,0-3.72-.36-7.14-1.07-10.27-.72-3.12-1.66-6.2-2.8-9.24s-2.36-6.14-3.67-9.3c-1.31-3.18-2.57-6.62-3.8-10.33-1.22-3.72-2.3-7.79-3.22-12.23-.93-4.43-1.52-9.47-1.78-15.13,4.73,3.04,8.78,6.08,12.16,9.12s6.36,6.01,8.93,8.93c2.57,2.91,4.89,5.72,6.96,8.42,2.07,2.7,4.16,5.3,6.28,7.79,2.11,2.5,4.37,4.84,6.77,7.03,2.41,2.2,5.21,4.18,8.42,5.95,1.94,1.19,3.88,2.05,5.83,2.6,1.95.55,3.89.82,5.83.82,2.61,0,5.1-.51,7.47-1.52,2.36-1.01,4.43-2.42,6.21-4.24,1.77-1.81,3.18-3.99,4.24-6.52,1.06-2.54,1.58-5.28,1.58-8.24,0-3.54-.95-6.79-2.84-9.75-1.9-2.95-4.68-5.49-8.31-7.6-3.21-1.86-6.39-3.27-9.55-4.24-3.17-.97-6.34-1.73-9.51-2.28-3.16-.55-6.46-1.06-9.87-1.52-3.42-.46-7.02-1.1-10.77-1.9-3.76-.8-7.77-1.92-12.03-3.35-4.27-1.44-8.89-3.43-13.87-5.96,4.98-2.54,9.6-4.52,13.87-5.95,4.26-1.44,8.27-2.54,12.03-3.29,3.75-.76,7.35-1.35,10.77-1.78,3.41-.42,6.71-.9,9.87-1.45,3.17-.55,6.32-1.31,9.44-2.28s6.33-2.43,9.62-4.38c3.63-2.11,6.41-4.66,8.31-7.66,1.89-2.99,2.84-6.26,2.84-9.81,0-2.96-.52-5.68-1.58-8.17s-2.47-4.64-4.24-6.46c-1.78-1.82-3.85-3.23-6.21-4.24-2.37-1.01-4.86-1.52-7.47-1.52-3.97,0-7.86,1.1-11.66,3.29-3.21,1.86-6.01,3.91-8.42,6.14-2.4,2.24-4.66,4.6-6.77,7.09-2.12,2.49-4.21,5.09-6.28,7.8-2.07,2.7-4.39,5.48-6.96,8.35-2.57,2.87-5.55,5.8-8.93,8.81-3.38,2.99-7.43,6.01-12.16,9.05.26-5.57.85-10.57,1.78-15.01.92-4.43,2-8.48,3.22-12.15,1.23-3.68,2.51-7.08,3.86-10.21,1.35-3.12,2.58-6.22,3.68-9.3,1.09-3.08,2.01-6.21,2.73-9.38.71-3.16,1.07-6.6,1.07-10.32,0-6.33-1.79-11.42-5.39-15.26-3.59-3.84-8.46-5.76-14.62-5.76-3.05,0-5.79.51-8.24,1.52-2.45,1.01-4.54,2.45-6.26,4.3-1.73,1.86-3.06,4.08-3.99,6.65-.93,2.58-1.39,5.43-1.39,8.55,0,3.72.35,7.16,1.07,10.32.72,3.17,1.65,6.3,2.79,9.38,1.14,3.08,2.36,6.18,3.67,9.3,1.31,3.13,2.57,6.53,3.8,10.21,1.22,3.67,2.29,7.72,3.22,12.15.93,4.44,1.52,9.44,1.78,15.01-7.09-4.56-12.77-9.05-17.03-13.49-4.27-4.43-8.01-8.67-11.21-12.72-3.21-4.06-6.38-7.88-9.5-11.47-3.13-3.59-7.1-6.77-11.91-9.56-3.63-2.19-7.51-3.29-11.65-3.29-2.62,0-5.09.51-7.41,1.52-2.32,1.01-4.37,2.42-6.14,4.24-1.77,1.82-3.19,3.97-4.24,6.46-1.07,2.49-1.59,5.21-1.59,8.17,0,3.55.92,6.82,2.79,9.81,1.86,3,4.64,5.55,8.36,7.66,3.2,1.95,6.35,3.41,9.43,4.38,3.09.97,6.21,1.73,9.38,2.28,3.16.55,6.45,1.03,9.87,1.45,3.43.43,7.02,1.02,10.77,1.78,3.75.75,7.79,1.85,12.1,3.29,4.3,1.43,8.99,3.41,14.05,5.95-4.98,2.53-9.64,4.52-13.99,5.96-4.35,1.43-8.41,2.55-12.16,3.35Z"/>
  <path class="cls-1" d="M518.58,1000.7c-.52-.06-1.04-.13-1.55-.19-5.14-.59-10.35-.95-15.62-1.06-1.3-.04-2.62-.05-3.93-.05h-163.98v334.6h333.5v-164.52c0-86.77-64.75-158.36-148.41-168.78Z"/>
</svg>