<?xml version="1.0" encoding="UTF-8"?>
<svg id="Layer_1" data-name="Layer 1" xmlns="http://www.w3.org/2000/svg" viewBox="0 0 4001.11 1333.33">
  <defs>
    <style>
      .cls-1 {
        fill: #1a1a1b;
      }
    </style>
  </defs>
  <path class="cls-1" d="M666.66,0H0C92.04,0,175.38,37.31,235.7,97.63s97.63,143.66,97.63,235.7h333.33V0ZM531.32,197.99c-8.02,8.01-19.09,12.97-31.32,12.97s-23.31-4.96-31.33-12.97c-8.01-8.02-12.97-19.1-12.97-31.33,0-24.46,19.83-44.29,44.3-44.29,12.23,0,23.3,4.96,31.32,12.97,8.01,8.02,12.97,19.09,12.97,31.32s-4.96,23.31-12.97,31.33Z"/>
  <path class="cls-1" d="M2000,0v666.66c184.09,0,333.33-149.24,333.33-333.33V0h-333.33ZM1951.18,715.48c30.17,30.16,48.82,71.83,48.82,117.85v-166.67h-166.67c46.02,0,87.69,18.65,117.85,48.82ZM2000,333.33c-184.1,0-333.34,149.24-333.34,333.33v166.67c0-92.05,74.62-166.67,166.67-166.67h-166.42c183.98-.13,333.09-149.32,333.09-333.33ZM1666.66,0c0,184.09,149.24,333.33,333.34,333.33C2000,149.23,1850.76,0,1666.66,0Z"/>
  <path class="cls-1" d="M1000,0v333.33c-92.05,0-175.39-37.31-235.71-97.63C703.97,175.38,666.66,92.05,666.66,0h333.34Z"/>
  <path class="cls-1" d="M1569.03,430.96c60.32,60.32,97.63,143.65,97.63,235.7-184.08,0-333.31-149.22-333.33-333.29v332.19c0-91.75-37.25-174.8-97.47-234.92-60.22-60.13-143.42-97.31-235.31-97.31h-.55C1000,149.24,1149.24,0,1333.33,0v333.29c0-92.04,37.32-175.36,97.64-235.68C1491.29,37.3,1574.62,0,1666.66,0c0,92.05-37.31,175.38-97.63,235.7s-143.66,97.63-235.7,97.63c92.04,0,175.38,37.31,235.7,97.63Z"/>
  <path class="cls-1" d="M2333.33,1000h333.33v-333.34c-184.09,0-333.33,149.24-333.33,333.34Z"/>
  <path class="cls-1" d="M3000,0c-92.05,0-175.39,37.31-235.71,97.63s-97.63,143.65-97.63,235.7h-166.66c-92.05,0-166.67,74.62-166.67,166.67,0,46.02,18.66,87.69,48.82,117.85,30.16,30.16,71.82,48.81,117.85,48.81h333.33c92.05,0,166.67-74.62,166.67-166.66,0-46.03-18.65-87.69-48.82-117.85-30.16-30.16-71.83-48.82-117.85-48.82h500V0h-333.33ZM2857.59,449.17c12.72,12.72,20.59,30.3,20.59,49.72s-7.87,37-20.59,49.72c-12.73,12.73-30.31,20.6-49.73,20.6s-37-7.87-49.73-20.6c-12.72-12.72-20.59-30.3-20.59-49.72,0-38.84,31.48-70.32,70.32-70.32,19.42,0,37,7.87,49.73,20.6Z"/>
  <path class="cls-1" d="M3000,1333.33h-333.34v-333.33c184.1,0,333.34,149.23,333.34,333.33Z"/>
  <rect class="cls-1" x="1388.41" y="721.74" width="223.17" height="223.17" transform="translate(-149.91 1304.74) rotate(-45)"/>
  <path class="cls-1" d="M2166.66,1000c46.03,0,87.69-18.65,117.85-48.82,30.16-30.16,48.82-71.83,48.82-117.85s-18.66-87.69-48.82-117.85c-30.16-30.17-71.82-48.82-117.85-48.82-92.04,0-166.66,74.62-166.66,166.67,0,46.02,18.65,87.69,48.81,117.85,30.16,30.17,71.83,48.82,117.85,48.82ZM2145.91,826.53c-4.26-1.43-8.27-2.55-12.03-3.35-3.75-.81-7.34-1.44-10.76-1.9-3.42-.46-6.71-.97-9.87-1.52-3.17-.55-6.33-1.31-9.5-2.28-3.16-.97-6.35-2.38-9.56-4.24-3.62-2.11-6.39-4.64-8.29-7.6-1.9-2.95-2.85-6.2-2.85-9.74,0-2.96.53-5.7,1.59-8.23,1.05-2.53,2.46-4.71,4.24-6.52,1.77-1.82,3.84-3.23,6.2-4.24,2.36-1.01,4.85-1.52,7.47-1.52,1.94,0,3.88.27,5.82.82,1.94.55,3.88,1.41,5.83,2.6,3.2,1.77,6.01,3.75,8.41,5.95,2.41,2.19,4.67,4.53,6.78,7.02,2.11,2.49,4.2,5.09,6.26,7.79,2.07,2.7,4.39,5.51,6.97,8.42,2.57,2.91,5.55,5.88,8.92,8.92,3.38,3.04,7.43,6.08,12.15,9.12-.25-5.66-.84-10.7-1.77-15.13-.93-4.43-2-8.5-3.23-12.22-1.22-3.71-2.48-7.15-3.79-10.32-1.31-3.16-2.54-6.26-3.68-9.3-1.14-3.04-2.06-6.12-2.78-9.24-.72-3.12-1.08-6.54-1.08-10.26,0-3.12.47-5.97,1.4-8.54.93-2.58,2.25-4.79,3.98-6.65,1.73-1.85,3.84-3.29,6.33-4.3s5.26-1.52,8.29-1.52,5.79.51,8.23,1.52c2.45,1.01,4.54,2.45,6.27,4.3,1.73,1.86,3.06,4.07,3.99,6.65.93,2.57,1.39,5.42,1.39,8.54,0,3.63-.36,7.03-1.08,10.2-.71,3.16-1.64,6.26-2.78,9.3-1.14,3.04-2.36,6.14-3.67,9.3-1.31,3.17-2.58,6.61-3.8,10.32-1.22,3.72-2.3,7.79-3.23,12.22-.93,4.43-1.52,9.47-1.77,15.13,4.73-3.13,8.8-6.19,12.22-9.18,3.41-3,6.41-5.95,8.98-8.86,2.58-2.91,4.92-5.72,7.03-8.42,2.11-2.7,4.2-5.3,6.27-7.79,2.07-2.49,4.3-4.83,6.71-7.02,2.4-2.2,5.21-4.18,8.41-5.95,3.63-2.28,7.52-3.42,11.65-3.42,2.62,0,5.09.51,7.41,1.52,2.32,1.01,4.36,2.42,6.14,4.24,1.77,1.81,3.18,3.99,4.24,6.52,1.05,2.53,1.58,5.27,1.58,8.23,0,3.54-.93,6.79-2.78,9.74-1.86,2.96-4.64,5.49-8.36,7.6-3.21,1.86-6.35,3.27-9.43,4.24-3.08.97-6.2,1.73-9.37,2.28-3.16.55-6.46,1.06-9.87,1.52-3.42.46-7.01,1.09-10.76,1.9-3.76.8-7.81,1.92-12.16,3.35-4.34,1.44-9,3.42-13.99,5.95,5.07,2.53,9.75,4.52,14.06,5.95,4.3,1.44,8.33,2.53,12.09,3.29,3.75.76,7.34,1.35,10.76,1.78,3.41.42,6.71.9,9.87,1.45,3.17.55,6.29,1.31,9.37,2.28,3.08.97,6.22,2.43,9.43,4.37,3.72,2.11,6.5,4.66,8.36,7.66,1.85,2.99,2.78,6.26,2.78,9.81,0,2.95-.53,5.67-1.58,8.16-1.06,2.49-2.47,4.64-4.24,6.46-1.78,1.82-3.82,3.23-6.14,4.24-2.32,1.01-4.79,1.52-7.41,1.52-4.13,0-8.02-1.1-11.65-3.29-4.81-2.79-8.77-5.97-11.9-9.56-3.12-3.59-6.28-7.4-9.49-11.46-3.21-4.05-6.94-8.29-11.2-12.72s-9.94-8.92-17.03-13.48c.25,5.57.84,10.57,1.77,15s2.01,8.48,3.23,12.15c1.22,3.68,2.49,7.07,3.8,10.19,1.31,3.13,2.53,6.23,3.67,9.31,1.14,3.08,2.07,6.2,2.78,9.37.72,3.16,1.08,6.6,1.08,10.31,0,3.13-.46,5.97-1.39,8.55-.93,2.57-2.26,4.79-3.99,6.65-1.73,1.85-3.82,3.29-6.27,4.3-2.44,1.01-5.19,1.52-8.23,1.52-6.15,0-11.03-1.92-14.62-5.76-3.58-3.84-5.38-8.93-5.38-15.26,0-3.71.36-7.15,1.08-10.31.72-3.17,1.63-6.29,2.72-9.37,1.1-3.08,2.32-6.18,3.67-9.31,1.35-3.12,2.64-6.51,3.86-10.19,1.23-3.67,2.3-7.72,3.23-12.15s1.52-9.43,1.77-15c-4.72,3.04-8.77,6.05-12.15,9.05-3.37,3-6.35,5.93-8.92,8.8-2.58,2.87-4.9,5.65-6.97,8.35-2.06,2.71-4.15,5.3-6.26,7.79-2.11,2.49-4.37,4.85-6.78,7.09-2.4,2.23-5.21,4.28-8.41,6.14-3.8,2.19-7.68,3.29-11.65,3.29-2.62,0-5.11-.51-7.47-1.52-2.36-1.01-4.43-2.42-6.2-4.24-1.78-1.82-3.19-3.97-4.24-6.46-1.06-2.49-1.59-5.21-1.59-8.16,0-3.55.95-6.82,2.85-9.81,1.9-3,4.67-5.55,8.29-7.66,3.29-1.94,6.5-3.4,9.62-4.37,3.13-.97,6.27-1.73,9.44-2.28,3.16-.55,6.45-1.03,9.87-1.45,3.42-.43,7.01-1.02,10.76-1.78,3.76-.76,7.77-1.85,12.03-3.29,4.26-1.43,8.88-3.42,13.86-5.95-4.98-2.53-9.6-4.51-13.86-5.95Z"/>
  <path class="cls-1" d="M0,1333.33c0-92.04,37.31-175.38,97.63-235.7,60.32-60.32,143.65-97.63,235.7-97.63H0v333.33Z"/>
  <path class="cls-1" d="M2000,1000v-166.67c0,46.02-18.65,87.69-48.82,117.85-30.16,30.17-71.83,48.82-117.85,48.82s-87.69-18.65-117.85-48.82c-30.17-30.16-48.82-71.83-48.82-117.85v166.67h-333.33v-334.44c0,.37,0,.73-.01,1.1-.29,91.31-37.48,173.93-97.46,233.81-60.22,60.12-143.42,97.31-235.31,97.31h-.55c-91.67-.15-174.66-37.31-234.76-97.31-59.98-59.88-97.17-142.5-97.46-233.81-.01-.37-.01-.73-.01-1.1,0-183.31,148.69-331.93,332.23-332.23h-333.33v333.33c0-92.05-37.31-175.38-97.63-235.7-60.32-60.32-143.66-97.63-235.71-97.63v333.33c1.85,0,3.7.02,5.54.05,89.85,1.46,171.06,38.47,230.17,97.58,60.32,60.32,97.63,143.66,97.63,235.71v27.22c-6.56,81.2-42.22,154.17-96.53,208.48-60.32,60.32-143.65,97.63-235.7,97.63h832.22c-46.02,0-87.69-18.66-117.85-48.82-30.16-30.16-48.81-71.82-48.81-117.85,0-92.04,74.62-166.66,166.66-166.66,46.03,0,87.69,18.65,117.85,48.81,30.16,30.16,48.82,71.83,48.82,117.85s-18.66,87.69-48.82,117.85c-30.16,30.16-71.82,48.82-117.85,48.82h1166.67v-333.33h-333.33ZM2166.66,1324.47l-157.81-157.81,157.81-157.8,157.81,157.8-157.81,157.81Z"/>
  <path class="cls-1" d="M3097.63,1097.63c60.32-60.32,143.65-97.63,235.7-97.63v333.33h-333.33c0-92.05,37.31-175.38,97.63-235.7Z"/>
  <path class="cls-1" d="M4001.1,332.22v333.34c0-91.9-37.25-175.1-97.47-235.32-60.22-60.22-143.42-97.47-235.31-97.47-.37,0-.73,0-1.1,0-91.45.29-174.23,37.48-234.21,97.46-45.55,45.55-77.96,104.24-91.04,169.91,10.51-33.68,29.05-63.81,53.39-88.15,39.02-39.01,92.91-63.14,152.45-63.14,44.17,0,85.23,13.28,119.41,36.07,11.9,7.92,22.97,17,33.04,27.07,39.01,39.02,63.14,92.91,63.14,152.45,0,.37,0,.74-.01,1.11-.37,74.45-38.47,139.97-96.17,178.41-34.18,22.79-75.24,36.07-119.41,36.07-59.54,0-113.43-24.13-152.45-63.14-25.25-25.26-44.27-56.74-54.53-91.96,12.26,68.09,45.24,128.99,92.18,175.93,51.21,51.21,119.03,85.8,194.68,95.01l12.67,1.18c5.24.49,10.48.81,15.74.96l10.56.31c.09,0,.18.01.28.01.09,0,.19-.01.28-.01.37.01.73.01,1.1.01,183.79,0,332.78-148.99,332.78-332.78v333.33h-315.4c87.93,4.94,166.77,43.9,223.64,103.95,56.87,60.05,91.76,141.19,91.76,230.49h-334.44c-92.05,0-175.38-37.77-235.7-98.84-59.67-60.4-96.82-143.6-97.61-235.6h-.02v-312.4c-.73-7.24-1.11-14.6-1.11-22.04s.38-14.8,1.11-22.04v-310.19h667.77Z"/>
  <path class="cls-1" d="M1200.98,1156.51c3.75-.8,7.34-1.43,10.76-1.9,3.41-.46,6.71-.97,9.87-1.52,3.17-.55,6.29-1.31,9.37-2.28s6.22-2.38,9.43-4.24c3.72-2.11,6.5-4.64,8.36-7.59,1.85-2.96,2.78-6.2,2.78-9.75,0-2.96-.53-5.7-1.58-8.23-1.06-2.53-2.47-4.7-4.24-6.52-1.78-1.81-3.82-3.23-6.14-4.24s-4.79-1.52-7.41-1.52c-4.13,0-8.02,1.14-11.65,3.42-3.2,1.77-6.01,3.75-8.41,5.95-2.41,2.19-4.64,4.54-6.71,7.03-2.07,2.48-4.16,5.08-6.27,7.78-2.11,2.7-4.45,5.51-7.03,8.42-2.57,2.91-5.57,5.87-8.98,8.86-3.42,3-7.49,6.06-12.22,9.18.25-5.65.84-10.7,1.77-15.13.93-4.43,2.01-8.5,3.23-12.21,1.22-3.72,2.49-7.16,3.8-10.32,1.31-3.17,2.53-6.27,3.67-9.31,1.14-3.03,2.07-6.14,2.78-9.3.72-3.17,1.08-6.56,1.08-10.19,0-3.12-.46-5.97-1.39-8.55-.93-2.57-2.26-4.79-3.99-6.64-1.73-1.86-3.82-3.3-6.27-4.31-2.44-1.01-5.19-1.52-8.23-1.52s-5.8.51-8.29,1.52-4.6,2.45-6.33,4.31c-1.73,1.85-3.05,4.07-3.98,6.64-.93,2.58-1.4,5.43-1.4,8.55,0,3.71.36,7.13,1.08,10.25.72,3.12,1.64,6.21,2.78,9.24,1.14,3.04,2.37,6.14,3.68,9.31,1.31,3.16,2.57,6.6,3.79,10.32,1.23,3.71,2.3,7.78,3.23,12.21.93,4.43,1.52,9.48,1.77,15.13-4.72-3.04-8.77-6.08-12.15-9.11-3.37-3.04-6.35-6.02-8.92-8.93-2.58-2.91-4.9-5.72-6.97-8.42-2.06-2.7-4.15-5.3-6.26-7.78-2.11-2.49-4.37-4.84-6.78-7.03-2.4-2.2-5.21-4.18-8.41-5.95-1.95-1.18-3.89-2.05-5.83-2.6-1.94-.55-3.88-.82-5.82-.82-2.62,0-5.11.51-7.47,1.52-2.36,1.01-4.43,2.43-6.2,4.24-1.78,1.82-3.19,3.99-4.24,6.52-1.06,2.53-1.59,5.27-1.59,8.23,0,3.55.95,6.79,2.85,9.75,1.9,2.95,4.67,5.48,8.29,7.59,3.21,1.86,6.4,3.27,9.56,4.24,3.17.97,6.33,1.73,9.5,2.28,3.16.55,6.45,1.06,9.87,1.52,3.42.47,7.01,1.1,10.76,1.9,3.76.8,7.77,1.92,12.03,3.36,4.26,1.43,8.88,3.41,13.86,5.95-4.98,2.53-9.6,4.51-13.86,5.95-4.26,1.43-8.27,2.53-12.03,3.29-3.75.76-7.34,1.35-10.76,1.77-3.42.42-6.71.91-9.87,1.46-3.17.54-6.31,1.3-9.44,2.27-3.12.97-6.33,2.43-9.62,4.37-3.62,2.11-6.39,4.67-8.29,7.66-1.9,3-2.85,6.27-2.85,9.81,0,2.96.53,5.68,1.59,8.17,1.05,2.49,2.46,4.64,4.24,6.45,1.77,1.82,3.84,3.23,6.2,4.24,2.36,1.02,4.85,1.52,7.47,1.52,3.97,0,7.85-1.09,11.65-3.29,3.2-1.85,6.01-3.9,8.41-6.14,2.41-2.23,4.67-4.6,6.78-7.09,2.11-2.49,4.2-5.08,6.26-7.78,2.07-2.7,4.39-5.49,6.97-8.36,2.57-2.87,5.55-5.8,8.92-8.8,3.38-2.99,7.43-6.01,12.15-9.05-.25,5.57-.84,10.57-1.77,15s-2,8.49-3.23,12.16c-1.22,3.67-2.51,7.07-3.86,10.19-1.35,3.12-2.57,6.22-3.67,9.3-1.09,3.08-2,6.21-2.72,9.37-.72,3.17-1.08,6.6-1.08,10.32,0,6.33,1.8,11.41,5.38,15.25,3.59,3.84,8.47,5.76,14.62,5.76,3.04,0,5.79-.5,8.23-1.52,2.45-1.01,4.54-2.45,6.27-4.3,1.73-1.86,3.06-4.07,3.99-6.65.93-2.57,1.39-5.42,1.39-8.54,0-3.72-.36-7.15-1.08-10.32-.71-3.16-1.64-6.29-2.78-9.37-1.14-3.08-2.36-6.18-3.67-9.3-1.31-3.12-2.58-6.52-3.8-10.19-1.22-3.67-2.3-7.73-3.23-12.16s-1.52-9.43-1.77-15c7.09,4.56,12.77,9.05,17.03,13.48,4.26,4.44,7.99,8.68,11.2,12.73,3.21,4.05,6.37,7.87,9.49,11.45,3.13,3.59,7.09,6.78,11.9,9.56,3.63,2.2,7.52,3.29,11.65,3.29,2.62,0,5.09-.5,7.41-1.52,2.32-1.01,4.36-2.42,6.14-4.24,1.77-1.81,3.18-3.96,4.24-6.45,1.05-2.49,1.58-5.21,1.58-8.17,0-3.54-.93-6.81-2.78-9.81-1.86-2.99-4.64-5.55-8.36-7.66-3.21-1.94-6.35-3.4-9.43-4.37-3.08-.97-6.2-1.73-9.37-2.27-3.16-.55-6.46-1.04-9.87-1.46-3.42-.42-7.01-1.01-10.76-1.77-3.76-.76-7.79-1.86-12.09-3.29-4.31-1.44-8.99-3.42-14.06-5.95,4.99-2.54,9.65-4.52,13.99-5.95,4.35-1.44,8.4-2.56,12.16-3.36Z"/>
  <path class="cls-1" d="M1833.33,725.36c-59.63,0-107.97,48.34-107.97,107.97,0,29.82,12.09,56.81,31.62,76.35,19.54,19.53,46.53,31.62,76.35,31.62s56.81-12.09,76.35-31.62c19.53-19.54,31.62-46.53,31.62-76.35s-12.09-56.81-31.62-76.35c-19.54-19.53-46.53-31.62-76.35-31.62Z"/>
  <path class="cls-1" d="M229.24,1136.87c-8.32,58.48-15.07,65.22-73.54,73.54,58.47,8.31,65.22,15.06,73.54,73.53,8.31-58.47,15.06-65.22,73.53-73.53-58.47-8.32-65.22-15.06-73.53-73.54Z"/>
</svg>