<?xml version="1.0" encoding="UTF-8"?>
<svg id="Layer_2" data-name="Layer 2" xmlns="http://www.w3.org/2000/svg" viewBox="0 0 48 48">
  <defs>
    <style>
      .cls-1 {
        fill: #fff;
      }
    </style>
  </defs>
  <path class="cls-1" d="M4.88,45.38c-.9,0-1.69-.34-2.36-1.01s-1.01-1.46-1.01-2.36V15c0-.9.34-1.69,1.01-2.36s1.46-1.01,2.36-1.01h10.12v-5.62c0-.9.34-1.69,1.01-2.36s1.46-1.01,2.36-1.01h11.25c.9,0,1.69.34,2.36,1.01s1.01,1.46,1.01,2.36v5.62h10.12c.9,0,1.69.34,2.36,1.01s1.01,1.46,1.01,2.36v27c0,.9-.34,1.69-1.01,2.36s-1.46,1.01-2.36,1.01H4.88ZM18.38,11.62h11.25v-5.62h-11.25v5.62ZM43.12,31.26h-14.01v3.38h-10.12v-3.38H4.88v10.74h38.25v-10.74ZM22.37,31.26h3.37v-3.38h-3.37v3.38ZM4.88,27.88h14.12v-3.38h10.12v3.38h14.01v-12.88H4.88v12.88Z"/>
</svg>