<?xml version="1.0" encoding="UTF-8"?>
<svg id="Layer_1" xmlns="http://www.w3.org/2000/svg" viewBox="0 0 16 20">
  <defs>
    <style>
      .cls-1 {
        fill: #37aa9c;
      }
    </style>
  </defs>
  <path class="cls-1" d="M13.59,2.23c-1.61-1.48-3.47-2.23-5.59-2.23s-3.98.75-5.59,2.23C.8,3.71,0,5.7,0,8.2c0,1.67.66,3.48,1.99,5.44,1.32,1.96,3.33,4.08,6.01,6.36,2.68-2.28,4.69-4.4,6.01-6.36,1.33-1.96,1.99-3.77,1.99-5.44,0-2.5-.81-4.49-2.41-5.97ZM9.41,9.42c-.39.39-.86.58-1.41.58s-1.02-.19-1.41-.58c-.4-.4-.59-.87-.59-1.42s.19-1.02.59-1.41c.39-.39.86-.59,1.41-.59s1.02.2,1.41.59c.39.39.59.86.59,1.41s-.2,1.02-.59,1.42Z"/>
</svg>